<svg width="650.31" height="126.72" xmlns="http://www.w3.org/2000/svg">

 <g>
  <title>background</title>
  <rect fill="none" id="canvas_background" height="402" width="582" y="-1" x="-1"/>
 </g>
 <g>
  <title>Layer 1</title>
  <path stroke="null" id="svg_2" d="m10.8,0.000011c-3.0332,0.0811 -5.5725,1.1427 -7.6155,3.1855c-2.0429,2.0431 -3.1045,4.5824 -3.1855,7.6155l0,105.12c0.081,3.033 1.1426,5.5722 3.1855,7.6152c2.043,2.043 4.5823,3.1045 7.6152,3.1856l628.71,0c3.033,-0.081 5.5703,-1.1426 7.6133,-3.1856s3.1065,-4.5823 3.1875,-7.6152l0,-105.12c-0.081,-3.0329 -1.1445,-5.5722 -3.1875,-7.6152c-2.03,-2.0421 -4.57,-3.1037 -7.6,-3.1848l-628.71,0l-0.013,-0.001z"/>
  <path stroke="null" id="svg_3" d="m10.8,5.180011l628.71,0c1.62,0.0361 2.9521,0.5772 3.9961,1.6211c1.044,1.0441 1.5831,2.3762 1.6191,3.9961l0,105.12c-0.036,1.62 -0.57516,2.9521 -1.6191,3.9961c-1.044,1.044 -2.3761,1.5851 -3.9961,1.6211l-628.71,0c-1.62,-0.036 -2.9521,-0.57713 -3.9961,-1.6211s-1.5851,-2.3761 -1.6211,-3.9961l0,-105.12c0.036,-1.6199 0.57709,-2.952 1.6211,-3.9961c1.044,-1.0439 2.3761,-1.585 3.9961,-1.6211z" fill="#fff"/>
  <path stroke="null" id="svg_4" d="m10.8,7.340011c-0.963,0.027 -1.7749,0.3684 -2.4319,1.0253c-0.657,0.6571 -0.9984,1.4689 -1.0253,2.4319l0,105.12c0.027,0.96298 0.36838,1.7727 1.0254,2.4297c0.65698,0.65698 1.4686,1.0003 2.4316,1.0273l46.223,0l0,-112.03l-46.2228,-0.0042z" fill="#000080"/>
  <g stroke="null" id="svg_5" fill="#fff">
   <path stroke="null" id="svg_6" d="m31.1,21.170011l0.7207,2.5918l2.7344,0l-2.1582,1.584l0.71875,2.4473l-2.0156,-1.4395l-2.0156,1.4395l0.7207,-2.4473l-2.1602,-1.584l2.7344,0l0.72065,-2.5918z"/>
   <path stroke="null" id="svg_7" d="m22.46,23.470011l0.7207,2.5918l2.7363,0l-2.1602,1.584l0.7207,2.4473l-2.0176,-1.4395l-2.0156,1.4395l0.7207,-2.4473l-2.1602,-1.584l2.7363,0l0.7189,-2.5918z"/>
   <path stroke="null" id="svg_8" d="m39.75,23.470011l0.71875,2.5918l2.7363,0l-2.1602,1.584l0.7207,2.4473l-2.0156,-1.4395l-2.0176,1.4395l0.7207,-2.4473l-2.1602,-1.584l2.7363,0l0.72085,-2.5918z"/>
   <path stroke="null" id="svg_9" d="m16.13,29.810011l0.7207,2.5918l2.7363,0l-2.1602,1.584l0.7207,2.4473l-2.0176,-1.4395l-2.0156,1.4395l0.7207,-2.4473l-2.1602,-1.584l2.7363,0l0.7189,-2.5918z"/>
   <path stroke="null" id="svg_10" d="m46.08,29.810011l0.71875,2.5918l2.7363,0l-2.1602,1.584l0.7207,2.4473l-2.0156,-1.4395l-2.0176,1.4395l0.7207,-2.4473l-2.1602,-1.584l2.7363,0l0.72085,-2.5918z"/>
   <path stroke="null" id="svg_11" d="m13.83,38.450011l0.71875,2.5918l2.7363,0l-2.1602,1.584l0.7207,2.4492l-2.0156,-1.4414l-2.0156,1.4414l0.71875,-2.4492l-2.1602,-1.584l2.7363,0l0.7208,-2.5918z"/>
   <path stroke="null" id="svg_12" d="m48.38,38.450011l0.7207,2.5918l2.7363,0l-2.1602,1.584l0.71875,2.4492l-2.0156,-1.4414l-2.0156,1.4414l0.7207,-2.4492l-2.1602,-1.584l2.7363,0l0.71885,-2.5918z"/>
   <path stroke="null" id="svg_13" d="m16.13,47.090011l0.7207,2.5918l2.7363,0l-2.1602,1.584l0.7207,2.4473l-2.0176,-1.4395l-2.0156,1.4395l0.7207,-2.4473l-2.1602,-1.584l2.7363,0l0.7189,-2.5918z"/>
   <path stroke="null" id="svg_14" d="m46.08,47.090011l0.71875,2.5918l2.7363,0l-2.1602,1.584l0.7207,2.4473l-2.0156,-1.4395l-2.0176,1.4395l0.7207,-2.4473l-2.1602,-1.584l2.7363,0l0.72085,-2.5918z"/>
   <path stroke="null" id="svg_15" d="m22.46,53.420011l0.7207,2.5918l2.7363,0l-2.1602,1.584l0.7207,2.4473l-2.0176,-1.4395l-2.0156,1.4395l0.7207,-2.4473l-2.1602,-1.584l2.7363,0l0.7189,-2.5918z"/>
   <path stroke="null" id="svg_16" d="m39.75,53.420011l0.71875,2.5918l2.7363,0l-2.1602,1.584l0.7207,2.4473l-2.0156,-1.4395l-2.0176,1.4395l0.7207,-2.4473l-2.1602,-1.584l2.7363,0l0.72085,-2.5918z"/>
  </g>
  <g stroke="null" id="svg_17" fill="#fff">
   <path stroke="null" id="svg_18" d="m31.11,55.730011l0.7207,2.5918l2.7344,0l-2.1582,1.584l0.71875,2.4492l-2.0156,-1.4395l-2.0156,1.4395l0.7207,-2.4492l-2.1602,-1.584l2.7344,0l0.72065,-2.5918z"/>
   <path stroke="null" id="svg_19" d="m523.505,62.500011c0.79796,-0.039 2.2606,0.0748 4.3906,0.3418c2.1299,0.26704 3.5946,0.91999 4.3926,1.9609c0.93894,1.752 1.6535,3.7558 2.1426,6.0117c0.48895,2.256 0.73524,4.6199 0.73829,7.0918c0.099,3.453 -0.67533,6.7348 -2.3223,9.8457c-1.647,3.111 -4.7609,4.7733 -9.3418,4.9863c-4.656,-0.22198 -7.8371,-1.9011 -9.541,-5.0391c-1.704,-3.1379 -2.5081,-6.403 -2.4121,-9.793c0.012,-2.4719 0.27695,-4.8358 0.79297,-7.0918c0.51597,-2.2559 1.2119,-4.2597 2.0879,-6.0117c0.73797,-1.041 2.2137,-1.6939 4.4277,-1.9609c2.2139,-0.26695 3.7625,-0.38076 4.6445,-0.3418l0.00004,0.0001z"/>
   <path stroke="null" id="svg_20" d="m22.9,78.910011l9.791,0c1.9139,0.051 3.4868,0.70594 4.7168,1.9629c1.2299,1.257 1.8642,2.8112 1.9062,4.6621l0,9.791c-0.042,1.851 -0.67632,3.4051 -1.9062,4.6621c-1.23,1.257 -2.8029,1.9119 -4.7168,1.9629l-9.791,0l0,-23.041z"/>
  </g>
  <path stroke="null" id="svg_21" d="m26.21,82.220011l0,16.416l6.4805,0c0.95694,-0.021 1.7424,-0.33812 2.3574,-0.95312c0.61495,-0.61498 0.93403,-1.4024 0.95508,-2.3594l0,-9.791c-0.0211,-0.95697 -0.34013,-1.7424 -0.95508,-2.3574c-0.61504,-0.61497 -1.4005,-0.93405 -2.3574,-0.95508l-6.4805,0z" fill="#000080"/>
  <g id="svg_23">
   <path id="svg_24" d="m119.981,58.65c0,-0.2875 0,-0.575 0.2875,-0.8625l24.006,-32.631c0.8625,-1.15 1.15,-2.0125 1.15,-2.875c0,-1.15 -1.15,-1.725 -3.45,-1.725l-6.1812,0c-1.2938,0 -2.0125,1.0062 -3.0188,1.8688l-26.162,34.356s-1.2938,1.15 -1.8688,1.15c-0.8625,-0.14375 -1.2938,-0.575 -1.2938,-1.15l0,-33.925c0,-1.15 -0.8625,-2.3 -2.3,-2.3l-8.05,0c-1.4375,0 -2.3,1.5812 -2.3,2.5875l0,81.362c0,1.15 1.0062,2.3 2.4438,2.3l7.6187,0c1.15,0 2.5875,-0.8625 2.5875,-2.3l0,-21.131c0,-1.4375 0.43125,-2.7312 1.15,-3.7375l4.6,-6.1812c0.2875,-0.43125 0.71875,-0.71875 1.15,-0.8625c0.71875,0 1.15,0.2875 1.5812,0.8625l18.112,31.05c0.8625,1.5812 2.0125,2.3 3.1625,2.3l8.7688,0c2.3,0 3.45,-0.575 3.45,-1.8688c0,-0.71875 -0.2875,-1.725 -1.15,-3.0188l-24.01,-42.264c0,-0.2875 -0.2875,-0.575 -0.2875,-1.0062l0.0041,0.0017z"/>
   <path id="svg_25" d="m272.691,76.906l-8.9125,0c-1.5812,0 -2.4438,0.71875 -2.4438,2.1562c0,8.1938 -4.8875,13.944 -13.512,13.944c-8.05,0 -13.512,-3.5938 -13.512,-14.806l0,-40.969c0,-3.45 2.3,-5.75 5.75,-5.75l15.238,0c1.2938,0 2.5875,0.8625 2.5875,2.3l0,9.9188c0,1.5812 0.8625,2.4438 2.4438,2.4438l7.6188,0c1.0062,0 1.725,-0.575 1.8688,-2.0125l1.8688,-16.1l0,-1.0062c0,-3.8812 -3.1625,-6.4688 -7.0438,-6.4688l-29.469,0c-7.7625,0 -14.662,5.3188 -14.662,14.662l0,44.994c0,21.275 12.506,26.594 27.312,26.594c16.962,0 27.312,-9.9187 27.312,-26.45c0,-1.8688 -0.43125,-3.45 -2.4438,-3.45l-0.0008,-0.0003z"/>
   <path id="svg_26" d="m338.981,101.92l-20.125,-32.2c-0.575,-0.8625 -0.8625,-1.725 -0.8625,-2.4438c0,-3.7375 18.544,-8.3375 18.544,-17.825l0,-21.419c0,-4.6 -2.5875,-7.475 -7.0438,-7.475l-41.831,0c-1.2938,0 -2.3,1.0062 -2.3,2.5875l0,81.362c0,1.15 1.0062,2.3 2.4438,2.3l8.7688,0c1.5812,0 2.5875,-1.0062 2.5875,-2.3l0,-70.437c0,-0.71875 0.43125,-2.5875 2.4438,-2.5875l17.681,0c1.15,0 2.3,0.8625 2.3,2.3l0,15.669c0,2.875 -2.1562,6.325 -5.6062,6.325l-10.494,0c-1.8688,0 -2.875,1.0062 -2.875,2.875l0,8.3375c0,0.8625 0.2875,1.725 0.71875,2.5875l21.419,34.787c1.15,2.0125 2.5875,2.4438 3.1625,2.4438l8.9125,0c2.0125,0 3.1625,-0.8625 3.1625,-2.4438c0,-1.4375 -0.8625,-2.3 -1.0062,-2.4438l-0.00045,0.0006z"/>
   <path id="svg_27" d="m375.691,48.156l6.9,0c1.5812,0 1.725,-0.14375 3.8812,-2.3l7.7625,-7.0438c0.71875,-0.575 0.8625,-0.8625 1.725,-0.8625c0.575,0 0.8625,0.14375 0.8625,0.8625l0,51.75c0,1.4375 -1.15,2.4438 -2.3,2.4438l-18.831,0c-1.5812,0 -2.4438,0.8625 -2.4438,2.4438l0,8.9125c0,1.5812 0.8625,2.4438 2.4438,2.4438l46.288,0c1.725,0 2.4438,-0.8625 2.4438,-2.4438l0,-8.9125c0,-1.5812 -0.71875,-2.4438 -2.4438,-2.4438l-8.9125,0c-1.5812,0 -2.4438,-0.8625 -2.4438,-2.4438l0,-67.706c0,-1.5812 -0.71875,-2.3 -2.4438,-2.3l-12.362,0c-0.71875,0 -1.2938,0.14375 -1.725,0.575l-14.806,13.369c-1.8688,1.725 -6.0375,1.725 -6.0375,4.3125l0,7.0438c0,1.15 1.0062,2.3 2.4438,2.3l-0.0014,-0.0005z"/>
   <path id="svg_28" d="m460.321,20.556c-20.412,0 -25.588,14.375 -25.588,28.75c0,11.788 3.45,24.725 16.962,24.725c6.9,0 11.644,-10.925 11.644,-11.5s-0.2875,-0.8625 -0.8625,-0.8625c-8.9125,0 -13.944,-1.725 -13.944,-12.362c0,-8.625 3.0188,-14.95 11.788,-14.95c7.0438,0 11.788,2.1562 11.788,14.95c0,4.3125 -0.8625,11.931 -4.7438,17.538l-24.294,34.787c-0.71875,1.0062 -1.15,2.0125 -1.15,3.0188c0,1.4375 1.15,2.1562 3.1625,2.1562l11.212,0c1.2938,0 2.1562,-0.8625 3.1625,-2.4438l20.556,-31.05c2.5875,-3.8812 5.8938,-10.206 5.8938,-24.006c0,-22.712 -10.206,-28.75 -25.588,-28.75l0.0015,-0.0007z"/>
   <path id="svg_29" d="m517.351,51.75c0,-0.43125 0,-1.15 4.3125,-8.1938l11.356,-18.831c0.43125,-0.71875 0.575,-1.2938 0.575,-1.8688c0,-1.5812 -1.0062,-2.3 -3.0188,-2.3l-8.05,0c-3.8812,0 -26.306,33.206 -26.306,57.644c0,13.944 9.3438,28.606 25.875,28.606c16.388,0 25.3,-15.094 25.3,-28.606c0,-15.956 -3.8812,-27.169 -19.406,-27.169c-3.8812,0 -7.7625,0.71875 -9.6312,1.2938c-0.71875,0 -1.0062,-0.14375 -1.0062,-0.575l-0.0003,-0.0002zm4.6,41.256c-9.4875,0 -11.931,-8.4812 -11.931,-14.806c0,-4.8875 1.15,-9.6312 2.875,-13.081c1.0062,-2.1562 7.7625,-2.3 9.0562,-2.3c1.15,0 7.6188,0.14375 8.7688,2.3c1.8688,3.45 2.875,8.1938 2.875,13.081c0,6.4688 -2.3,14.806 -11.644,14.806z"/>
   <path id="svg_30" d="m560.151,48.156l6.9,0c1.5812,0 1.725,-0.14375 3.8812,-2.3l7.7625,-7.0438c0.71875,-0.575 0.8625,-0.8625 1.725,-0.8625c0.575,0 0.8625,0.14375 0.8625,0.8625l0,51.75c0,1.4375 -1.15,2.4438 -2.3,2.4438l-18.831,0c-1.5812,0 -2.4438,0.8625 -2.4438,2.4438l0,8.9125c0,1.5812 0.8625,2.4438 2.4438,2.4438l46.288,0c1.725,0 2.4438,-0.8625 2.4438,-2.4438l0,-8.9125c0,-1.5812 -0.71875,-2.4438 -2.4438,-2.4438l-8.9125,0c-1.5812,0 -2.4438,-0.8625 -2.4438,-2.4438l0,-67.706c0,-1.5812 -0.71875,-2.3 -2.4438,-2.3l-12.362,0c-0.71875,0 -1.2938,0.14375 -1.725,0.575l-14.806,13.369c-1.8688,1.725 -6.0375,1.725 -6.0375,4.3125l0,7.0438c0,1.15 1.0062,2.3 2.4438,2.3l-0.0014,-0.0005z"/>
  </g>
 </g>
</svg>