<svg width="650.31" height="126.72" xmlns="http://www.w3.org/2000/svg">

 <g>
  <title>background</title>
  <rect fill="none" id="canvas_background" height="402" width="582" y="-1" x="-1"/>
 </g>
 <g>
  <path stroke="null" id="svg_2" d="m10.8,0.000011c-3.0332,0.0811 -5.5725,1.1427 -7.6155,3.1855c-2.0429,2.0431 -3.1045,4.5824 -3.1855,7.6155l0,105.12c0.081,3.033 1.1426,5.5722 3.1855,7.6152c2.043,2.043 4.5823,3.1045 7.6152,3.1856l628.71,0c3.033,-0.081 5.5703,-1.1426 7.6133,-3.1856s3.1065,-4.5823 3.1875,-7.6152l0,-105.12c-0.081,-3.0329 -1.1445,-5.5722 -3.1875,-7.6152c-2.03,-2.0421 -4.57,-3.1037 -7.6,-3.1848l-628.71,0l-0.013,-0.001z"/>
  <path stroke="null" id="svg_3" d="m10.8,5.180011l628.71,0c1.62,0.0361 2.9521,0.5772 3.9961,1.6211c1.044,1.0441 1.5831,2.3762 1.6191,3.9961l0,105.12c-0.036,1.62 -0.57516,2.9521 -1.6191,3.9961c-1.044,1.044 -2.3761,1.5851 -3.9961,1.6211l-628.71,0c-1.62,-0.036 -2.9521,-0.57713 -3.9961,-1.6211s-1.5851,-2.3761 -1.6211,-3.9961l0,-105.12c0.036,-1.6199 0.57709,-2.952 1.6211,-3.9961c1.044,-1.0439 2.3761,-1.585 3.9961,-1.6211z" fill="#fff"/>
  <path stroke="null" id="svg_4" d="m10.8,7.340011c-0.963,0.027 -1.7749,0.3684 -2.4319,1.0253c-0.657,0.6571 -0.9984,1.4689 -1.0253,2.4319l0,105.12c0.027,0.96298 0.36838,1.7727 1.0254,2.4297c0.65698,0.65698 1.4686,1.0003 2.4316,1.0273l46.223,0l0,-112.03l-46.2228,-0.0042z" fill="#000080"/>
  <g stroke="null" id="svg_5" fill="#fff">
   <path stroke="null" id="svg_6" d="m31.1,21.170011l0.7207,2.5918l2.7344,0l-2.1582,1.584l0.71875,2.4473l-2.0156,-1.4395l-2.0156,1.4395l0.7207,-2.4473l-2.1602,-1.584l2.7344,0l0.72065,-2.5918z"/>
   <path stroke="null" id="svg_7" d="m22.46,23.470011l0.7207,2.5918l2.7363,0l-2.1602,1.584l0.7207,2.4473l-2.0176,-1.4395l-2.0156,1.4395l0.7207,-2.4473l-2.1602,-1.584l2.7363,0l0.7189,-2.5918z"/>
   <path stroke="null" id="svg_8" d="m39.75,23.470011l0.71875,2.5918l2.7363,0l-2.1602,1.584l0.7207,2.4473l-2.0156,-1.4395l-2.0176,1.4395l0.7207,-2.4473l-2.1602,-1.584l2.7363,0l0.72085,-2.5918z"/>
   <path stroke="null" id="svg_9" d="m16.13,29.810011l0.7207,2.5918l2.7363,0l-2.1602,1.584l0.7207,2.4473l-2.0176,-1.4395l-2.0156,1.4395l0.7207,-2.4473l-2.1602,-1.584l2.7363,0l0.7189,-2.5918z"/>
   <path stroke="null" id="svg_10" d="m46.08,29.810011l0.71875,2.5918l2.7363,0l-2.1602,1.584l0.7207,2.4473l-2.0156,-1.4395l-2.0176,1.4395l0.7207,-2.4473l-2.1602,-1.584l2.7363,0l0.72085,-2.5918z"/>
   <path stroke="null" id="svg_11" d="m13.83,38.450011l0.71875,2.5918l2.7363,0l-2.1602,1.584l0.7207,2.4492l-2.0156,-1.4414l-2.0156,1.4414l0.71875,-2.4492l-2.1602,-1.584l2.7363,0l0.7208,-2.5918z"/>
   <path stroke="null" id="svg_12" d="m48.38,38.450011l0.7207,2.5918l2.7363,0l-2.1602,1.584l0.71875,2.4492l-2.0156,-1.4414l-2.0156,1.4414l0.7207,-2.4492l-2.1602,-1.584l2.7363,0l0.71885,-2.5918z"/>
   <path stroke="null" id="svg_13" d="m16.13,47.090011l0.7207,2.5918l2.7363,0l-2.1602,1.584l0.7207,2.4473l-2.0176,-1.4395l-2.0156,1.4395l0.7207,-2.4473l-2.1602,-1.584l2.7363,0l0.7189,-2.5918z"/>
   <path stroke="null" id="svg_14" d="m46.08,47.090011l0.71875,2.5918l2.7363,0l-2.1602,1.584l0.7207,2.4473l-2.0156,-1.4395l-2.0176,1.4395l0.7207,-2.4473l-2.1602,-1.584l2.7363,0l0.72085,-2.5918z"/>
   <path stroke="null" id="svg_15" d="m22.46,53.420011l0.7207,2.5918l2.7363,0l-2.1602,1.584l0.7207,2.4473l-2.0176,-1.4395l-2.0156,1.4395l0.7207,-2.4473l-2.1602,-1.584l2.7363,0l0.7189,-2.5918z"/>
   <path stroke="null" id="svg_16" d="m39.75,53.420011l0.71875,2.5918l2.7363,0l-2.1602,1.584l0.7207,2.4473l-2.0156,-1.4395l-2.0176,1.4395l0.7207,-2.4473l-2.1602,-1.584l2.7363,0l0.72085,-2.5918z"/>
  </g>
  <g stroke="null" id="svg_17" fill="#fff">
   <path stroke="null" id="svg_18" d="m31.11,55.730011l0.7207,2.5918l2.7344,0l-2.1582,1.584l0.71875,2.4492l-2.0156,-1.4395l-2.0156,1.4395l0.7207,-2.4492l-2.1602,-1.584l2.7344,0l0.72065,-2.5918z"/>
   <path stroke="null" id="svg_19" d="m523.505,62.500011c0.79796,-0.039 2.2606,0.0748 4.3906,0.3418c2.1299,0.26704 3.5946,0.91999 4.3926,1.9609c0.93894,1.752 1.6535,3.7558 2.1426,6.0117c0.48895,2.256 0.73524,4.6199 0.73829,7.0918c0.099,3.453 -0.67533,6.7348 -2.3223,9.8457c-1.647,3.111 -4.7609,4.7733 -9.3418,4.9863c-4.656,-0.22198 -7.8371,-1.9011 -9.541,-5.0391c-1.704,-3.1379 -2.5081,-6.403 -2.4121,-9.793c0.012,-2.4719 0.27695,-4.8358 0.79297,-7.0918c0.51597,-2.2559 1.2119,-4.2597 2.0879,-6.0117c0.73797,-1.041 2.2137,-1.6939 4.4277,-1.9609c2.2139,-0.26695 3.7625,-0.38076 4.6445,-0.3418l0.00004,0.0001z"/>
   <path stroke="null" id="svg_20" d="m22.9,78.910011l9.791,0c1.9139,0.051 3.4868,0.70594 4.7168,1.9629c1.2299,1.257 1.8642,2.8112 1.9062,4.6621l0,9.791c-0.042,1.851 -0.67632,3.4051 -1.9062,4.6621c-1.23,1.257 -2.8029,1.9119 -4.7168,1.9629l-9.791,0l0,-23.041z"/>
  </g>
  <path stroke="null" id="svg_21" d="m26.21,82.220011l0,16.416l6.4805,0c0.95694,-0.021 1.7424,-0.33812 2.3574,-0.95312c0.61495,-0.61498 0.93403,-1.4024 0.95508,-2.3594l0,-9.791c-0.0211,-0.95697 -0.34013,-1.7424 -0.95508,-2.3574c-0.61504,-0.61497 -1.4005,-0.93405 -2.3574,-0.95508l-6.4805,0z" fill="#000080"/>
 </g>
</svg>