<svg xmlns="http://www.w3.org/2000/svg" height="126.72" width="650.31" version="1.1">
	<g transform="translate(512.5 -472.77)">
		<path d="m-501.7 472.77c-3.0332 0.0811-5.5725 1.1427-7.6155 3.1855-2.0429 2.0431-3.1045 4.5824-3.1855 7.6155v105.12c0.081 3.033 1.1426 5.5722 3.1855 7.6152 2.043 2.043 4.5823 3.1045 7.6152 3.1856h628.71c3.033-0.081 5.5703-1.1426 7.6133-3.1856s3.1065-4.5823 3.1875-7.6152v-105.12c-0.081-3.0329-1.1445-5.5722-3.1875-7.6152-2.03-2.0421-4.57-3.1037-7.6-3.1848h-628.71z"/>
		<path fill="#fff" d="m-501.7 477.95h628.71c1.62 0.0361 2.9521 0.5772 3.9961 1.6211 1.044 1.0441 1.5831 2.3762 1.6191 3.9961v105.12c-0.036 1.62-0.57516 2.9521-1.6191 3.9961-1.044 1.044-2.3761 1.5851-3.9961 1.6211h-628.71c-1.62-0.036-2.9521-0.57713-3.9961-1.6211s-1.5851-2.3761-1.6211-3.9961v-105.12c0.036-1.6199 0.57709-2.952 1.6211-3.9961 1.044-1.0439 2.3761-1.585 3.9961-1.6211z"/>
		<path fill="#000080" d="m-501.7 480.11c-0.963 0.027-1.7749 0.3684-2.4319 1.0253-0.657 0.6571-0.9984 1.4689-1.0253 2.4319v105.12c0.027 0.96298 0.36838 1.7727 1.0254 2.4297 0.65698 0.65698 1.4686 1.0003 2.4316 1.0273h46.223v-112.03z"/>
		<g fill="#fff">
			<path d="m-481.4 493.94 0.7207 2.5918h2.7344l-2.1582 1.584 0.71875 2.4473-2.0156-1.4395-2.0156 1.4395 0.7207-2.4473-2.1602-1.584h2.7344z"/>
			<path d="m-490.04 496.24 0.7207 2.5918h2.7363l-2.1602 1.584 0.7207 2.4473-2.0176-1.4395-2.0156 1.4395 0.7207-2.4473-2.1602-1.584h2.7363z"/>
			<path d="m-472.75 496.24 0.71875 2.5918h2.7363l-2.1602 1.584 0.7207 2.4473-2.0156-1.4395-2.0176 1.4395 0.7207-2.4473-2.1602-1.584h2.7363z"/>
			<path d="m-496.37 502.58 0.7207 2.5918h2.7363l-2.1602 1.584 0.7207 2.4473-2.0176-1.4395-2.0156 1.4395 0.7207-2.4473-2.1602-1.584h2.7363z"/>
			<path d="m-466.42 502.58 0.71875 2.5918h2.7363l-2.1602 1.584 0.7207 2.4473-2.0156-1.4395-2.0176 1.4395 0.7207-2.4473-2.1602-1.584h2.7363z"/>
			<path d="m-498.67 511.22 0.71875 2.5918h2.7363l-2.1602 1.584 0.7207 2.4492-2.0156-1.4414-2.0156 1.4414 0.71875-2.4492-2.1602-1.584h2.7363z"/>
			<path d="m-464.12 511.22 0.7207 2.5918h2.7363l-2.1602 1.584 0.71875 2.4492-2.0156-1.4414-2.0156 1.4414 0.7207-2.4492-2.1602-1.584h2.7363z"/>
			<path d="m-496.37 519.86 0.7207 2.5918h2.7363l-2.1602 1.584 0.7207 2.4473-2.0176-1.4395-2.0156 1.4395 0.7207-2.4473-2.1602-1.584h2.7363z"/>
			<path d="m-466.42 519.86 0.71875 2.5918h2.7363l-2.1602 1.584 0.7207 2.4473-2.0156-1.4395-2.0176 1.4395 0.7207-2.4473-2.1602-1.584h2.7363z"/>
			<path d="m-490.04 526.19 0.7207 2.5918h2.7363l-2.1602 1.584 0.7207 2.4473-2.0176-1.4395-2.0156 1.4395 0.7207-2.4473-2.1602-1.584h2.7363z"/>
			<path d="m-472.75 526.19 0.71875 2.5918h2.7363l-2.1602 1.584 0.7207 2.4473-2.0156-1.4395-2.0176 1.4395 0.7207-2.4473-2.1602-1.584h2.7363z"/>
		</g>
		<g fill="#fff">
			<path d="m-481.39 528.5 0.7207 2.5918h2.7344l-2.1582 1.584 0.71875 2.4492-2.0156-1.4395-2.0156 1.4395 0.7207-2.4492-2.1602-1.584h2.7344z"/>
			<path d="m11.005 535.27c0.79796-0.039 2.2606 0.0748 4.3906 0.3418 2.1299 0.26704 3.5946 0.91999 4.3926 1.9609 0.93894 1.752 1.6535 3.7558 2.1426 6.0117 0.48895 2.256 0.73524 4.6199 0.73829 7.0918 0.099 3.453-0.67533 6.7348-2.3223 9.8457-1.647 3.111-4.7609 4.7733-9.3418 4.9863-4.656-0.22198-7.8371-1.9011-9.541-5.0391-1.704-3.1379-2.5081-6.403-2.4121-9.793 0.012-2.4719 0.27695-4.8358 0.79297-7.0918 0.51597-2.2559 1.2119-4.2597 2.0879-6.0117 0.73797-1.041 2.2137-1.6939 4.4277-1.9609 2.2139-0.26695 3.7625-0.38076 4.6445-0.3418z"/>
			<path d="m-489.6 551.68h9.791c1.9139 0.051 3.4868 0.70594 4.7168 1.9629 1.2299 1.257 1.8642 2.8112 1.9062 4.6621v9.791c-0.042 1.851-0.67632 3.4051-1.9062 4.6621-1.23 1.257-2.8029 1.9119-4.7168 1.9629h-9.791z"/>
		</g>
		<path fill="#000080" d="m-486.29 554.99v16.416h6.4805c0.95694-0.021 1.7424-0.33812 2.3574-0.95312 0.61495-0.61498 0.93403-1.4024 0.95508-2.3594v-9.791c-0.0211-0.95697-0.34013-1.7424-0.95508-2.3574-0.61504-0.61497-1.4005-0.93405-2.3574-0.95508z"/>
	</g>
	<g>
    <path d="m120.48 59.15c0-0.2875 0-0.575 0.2875-0.8625l24.006-32.631c0.8625-1.15 1.15-2.0125 1.15-2.875 0-1.15-1.15-1.725-3.45-1.725h-6.1812c-1.2938 0-2.0125 1.0062-3.0188 1.8688l-26.162 34.356s-1.2938 1.15-1.8688 1.15c-0.8625-0.14375-1.2938-0.575-1.2938-1.15v-33.925c0-1.15-0.8625-2.3-2.3-2.3h-8.05c-1.4375 0-2.3 1.5812-2.3 2.5875v81.362c0 1.15 1.0062 2.3 2.4438 2.3h7.6187c1.15 0 2.5875-0.8625 2.5875-2.3v-21.131c0-1.4375 0.43125-2.7312 1.15-3.7375l4.6-6.1812c0.2875-0.43125 0.71875-0.71875 1.15-0.8625 0.71875 0 1.15 0.2875 1.5812 0.8625l18.112 31.05c0.8625 1.5812 2.0125 2.3 3.1625 2.3h8.7688c2.3 0 3.45-0.575 3.45-1.8688 0-0.71875-0.2875-1.725-1.15-3.0188l-24.01-42.264c0-0.2875-0.2875-0.575-0.2875-1.0062z"/>
    <path d="m273.19 77.406h-8.9125c-1.5812 0-2.4438 0.71875-2.4438 2.1562 0 8.1938-4.8875 13.944-13.512 13.944-8.05 0-13.512-3.5938-13.512-14.806v-40.969c0-3.45 2.3-5.75 5.75-5.75h15.238c1.2938 0 2.5875 0.8625 2.5875 2.3v9.9188c0 1.5812 0.8625 2.4438 2.4438 2.4438h7.6188c1.0062 0 1.725-0.575 1.8688-2.0125l1.8688-16.1v-1.0062c0-3.8812-3.1625-6.4688-7.0438-6.4688h-29.469c-7.7625 0-14.662 5.3188-14.662 14.662v44.994c0 21.275 12.506 26.594 27.312 26.594 16.962 0 27.312-9.9187 27.312-26.45 0-1.8688-0.43125-3.45-2.4438-3.45z"/>
    <path d="m339.48 102.42-20.125-32.2c-0.575-0.8625-0.8625-1.725-0.8625-2.4438 0-3.7375 18.544-8.3375 18.544-17.825v-21.419c0-4.6-2.5875-7.475-7.0438-7.475h-41.831c-1.2938 0-2.3 1.0062-2.3 2.5875v81.362c0 1.15 1.0062 2.3 2.4438 2.3h8.7688c1.5812 0 2.5875-1.0062 2.5875-2.3v-70.437c0-0.71875 0.43125-2.5875 2.4438-2.5875h17.681c1.15 0 2.3 0.8625 2.3 2.3v15.669c0 2.875-2.1562 6.325-5.6062 6.325h-10.494c-1.8688 0-2.875 1.0062-2.875 2.875v8.3375c0 0.8625 0.2875 1.725 0.71875 2.5875l21.419 34.787c1.15 2.0125 2.5875 2.4438 3.1625 2.4438h8.9125c2.0125 0 3.1625-0.8625 3.1625-2.4438 0-1.4375-0.8625-2.3-1.0062-2.4438z"/>
    <path d="m376.19 48.656h6.9c1.5812 0 1.725-0.14375 3.8812-2.3l7.7625-7.0438c0.71875-0.575 0.8625-0.8625 1.725-0.8625 0.575 0 0.8625 0.14375 0.8625 0.8625v51.75c0 1.4375-1.15 2.4438-2.3 2.4438h-18.831c-1.5812 0-2.4438 0.8625-2.4438 2.4438v8.9125c0 1.5812 0.8625 2.4438 2.4438 2.4438h46.288c1.725 0 2.4438-0.8625 2.4438-2.4438v-8.9125c0-1.5812-0.71875-2.4438-2.4438-2.4438h-8.9125c-1.5812 0-2.4438-0.8625-2.4438-2.4438v-67.706c0-1.5812-0.71875-2.3-2.4438-2.3h-12.362c-0.71875 0-1.2938 0.14375-1.725 0.575l-14.806 13.369c-1.8688 1.725-6.0375 1.725-6.0375 4.3125v7.0438c0 1.15 1.0062 2.3 2.4438 2.3z"/>
    <path d="m460.82 21.056c-20.412 0-25.588 14.375-25.588 28.75 0 11.788 3.45 24.725 16.962 24.725 6.9 0 11.644-10.925 11.644-11.5s-0.2875-0.8625-0.8625-0.8625c-8.9125 0-13.944-1.725-13.944-12.362 0-8.625 3.0188-14.95 11.788-14.95 7.0438 0 11.788 2.1562 11.788 14.95 0 4.3125-0.8625 11.931-4.7438 17.538l-24.294 34.787c-0.71875 1.0062-1.15 2.0125-1.15 3.0188 0 1.4375 1.15 2.1562 3.1625 2.1562h11.212c1.2938 0 2.1562-0.8625 3.1625-2.4438l20.556-31.05c2.5875-3.8812 5.8938-10.206 5.8938-24.006 0-22.712-10.206-28.75-25.588-28.75z"/>
    <path d="m517.85 52.25c0-0.43125 0-1.15 4.3125-8.1938l11.356-18.831c0.43125-0.71875 0.575-1.2938 0.575-1.8688 0-1.5812-1.0062-2.3-3.0188-2.3h-8.05c-3.8812 0-26.306 33.206-26.306 57.644 0 13.944 9.3438 28.606 25.875 28.606 16.388 0 25.3-15.094 25.3-28.606 0-15.956-3.8812-27.169-19.406-27.169-3.8812 0-7.7625 0.71875-9.6312 1.2938-0.71875 0-1.0062-0.14375-1.0062-0.575zm4.6 41.256c-9.4875 0-11.931-8.4812-11.931-14.806 0-4.8875 1.15-9.6312 2.875-13.081 1.0062-2.1562 7.7625-2.3 9.0562-2.3 1.15 0 7.6188 0.14375 8.7688 2.3 1.8688 3.45 2.875 8.1938 2.875 13.081 0 6.4688-2.3 14.806-11.644 14.806z"/>
    <path d="m560.65 48.656h6.9c1.5812 0 1.725-0.14375 3.8812-2.3l7.7625-7.0438c0.71875-0.575 0.8625-0.8625 1.725-0.8625 0.575 0 0.8625 0.14375 0.8625 0.8625v51.75c0 1.4375-1.15 2.4438-2.3 2.4438h-18.831c-1.5812 0-2.4438 0.8625-2.4438 2.4438v8.9125c0 1.5812 0.8625 2.4438 2.4438 2.4438h46.288c1.725 0 2.4438-0.8625 2.4438-2.4438v-8.9125c0-1.5812-0.71875-2.4438-2.4438-2.4438h-8.9125c-1.5812 0-2.4438-0.8625-2.4438-2.4438v-67.706c0-1.5812-0.71875-2.3-2.4438-2.3h-12.362c-0.71875 0-1.2938 0.14375-1.725 0.575l-14.806 13.369c-1.8688 1.725-6.0375 1.725-6.0375 4.3125v7.0438c0 1.15 1.0062 2.3 2.4438 2.3z"/>
	</g>
</svg>
