<svg xmlns="http://www.w3.org/2000/svg" viewBox="0 0 650.31 126.72" class="svg">
  <g id="background" transform="translate(512.5 -472.77)">
    <path
      d="m-501.7 472.77c-3.0332 0.0811-5.5725 1.1427-7.6155 3.1855-2.0429 2.0431-3.1045 4.5824-3.1855 7.6155v105.12c0.081 3.033 1.1426 5.5722 3.1855 7.6152 2.043 2.043 4.5823 3.1045 7.6152 3.1856h628.71c3.033-0.081 5.5703-1.1426 7.6133-3.1856s3.1065-4.5823 3.1875-7.6152v-105.12c-0.081-3.0329-1.1445-5.5722-3.1875-7.6152-2.03-2.0421-4.57-3.1037-7.6-3.1848h-628.71z"
    />
    <path
      fill="#fff"
      d="m-501.7 477.95h628.71c1.62 0.0361 2.9521 0.5772 3.9961 1.6211 1.044 1.0441 1.5831 2.3762 1.6191 3.9961v105.12c-0.036 1.62-0.57516 2.9521-1.6191 3.9961-1.044 1.044-2.3761 1.5851-3.9961 1.6211h-628.71c-1.62-0.036-2.9521-0.57713-3.9961-1.6211s-1.5851-2.3761-1.6211-3.9961v-105.12c0.036-1.6199 0.57709-2.952 1.6211-3.9961 1.044-1.0439 2.3761-1.585 3.9961-1.6211z"
    />
    <path
      fill="#000080"
      d="m-501.7 480.11c-0.963 0.027-1.7749 0.3684-2.4319 1.0253-0.657 0.6571-0.9984 1.4689-1.0253 2.4319v105.12c0.027 0.96298 0.36838 1.7727 1.0254 2.4297 0.65698 0.65698 1.4686 1.0003 2.4316 1.0273h46.223v-112.03z"
    />
    <g fill="#fff">
      <path
        d="m-481.4 493.94 0.7207 2.5918h2.7344l-2.1582 1.584 0.71875 2.4473-2.0156-1.4395-2.0156 1.4395 0.7207-2.4473-2.1602-1.584h2.7344z"
      />
      <path
        d="m-490.04 496.24 0.7207 2.5918h2.7363l-2.1602 1.584 0.7207 2.4473-2.0176-1.4395-2.0156 1.4395 0.7207-2.4473-2.1602-1.584h2.7363z"
      />
      <path
        d="m-472.75 496.24 0.71875 2.5918h2.7363l-2.1602 1.584 0.7207 2.4473-2.0156-1.4395-2.0176 1.4395 0.7207-2.4473-2.1602-1.584h2.7363z"
      />
      <path
        d="m-496.37 502.58 0.7207 2.5918h2.7363l-2.1602 1.584 0.7207 2.4473-2.0176-1.4395-2.0156 1.4395 0.7207-2.4473-2.1602-1.584h2.7363z"
      />
      <path
        d="m-466.42 502.58 0.71875 2.5918h2.7363l-2.1602 1.584 0.7207 2.4473-2.0156-1.4395-2.0176 1.4395 0.7207-2.4473-2.1602-1.584h2.7363z"
      />
      <path
        d="m-498.67 511.22 0.71875 2.5918h2.7363l-2.1602 1.584 0.7207 2.4492-2.0156-1.4414-2.0156 1.4414 0.71875-2.4492-2.1602-1.584h2.7363z"
      />
      <path
        d="m-464.12 511.22 0.7207 2.5918h2.7363l-2.1602 1.584 0.71875 2.4492-2.0156-1.4414-2.0156 1.4414 0.7207-2.4492-2.1602-1.584h2.7363z"
      />
      <path
        d="m-496.37 519.86 0.7207 2.5918h2.7363l-2.1602 1.584 0.7207 2.4473-2.0176-1.4395-2.0156 1.4395 0.7207-2.4473-2.1602-1.584h2.7363z"
      />
      <path
        d="m-466.42 519.86 0.71875 2.5918h2.7363l-2.1602 1.584 0.7207 2.4473-2.0156-1.4395-2.0176 1.4395 0.7207-2.4473-2.1602-1.584h2.7363z"
      />
      <path
        d="m-490.04 526.19 0.7207 2.5918h2.7363l-2.1602 1.584 0.7207 2.4473-2.0176-1.4395-2.0156 1.4395 0.7207-2.4473-2.1602-1.584h2.7363z"
      />
      <path
        d="m-472.75 526.19 0.71875 2.5918h2.7363l-2.1602 1.584 0.7207 2.4473-2.0156-1.4395-2.0176 1.4395 0.7207-2.4473-2.1602-1.584h2.7363z"
      />
    </g>
    <g fill="#fff">
      <path
        d="m-481.39 528.5 0.7207 2.5918h2.7344l-2.1582 1.584 0.71875 2.4492-2.0156-1.4395-2.0156 1.4395 0.7207-2.4492-2.1602-1.584h2.7344z"
      />
      <path
        d="m11.005 535.27c0.79796-0.039 2.2606 0.0748 4.3906 0.3418 2.1299 0.26704 3.5946 0.91999 4.3926 1.9609 0.93894 1.752 1.6535 3.7558 2.1426 6.0117 0.48895 2.256 0.73524 4.6199 0.73829 7.0918 0.099 3.453-0.67533 6.7348-2.3223 9.8457-1.647 3.111-4.7609 4.7733-9.3418 4.9863-4.656-0.22198-7.8371-1.9011-9.541-5.0391-1.704-3.1379-2.5081-6.403-2.4121-9.793 0.012-2.4719 0.27695-4.8358 0.79297-7.0918 0.51597-2.2559 1.2119-4.2597 2.0879-6.0117 0.73797-1.041 2.2137-1.6939 4.4277-1.9609 2.2139-0.26695 3.7625-0.38076 4.6445-0.3418z"
      />
      <path
        d="m-489.6 551.68h9.791c1.9139 0.051 3.4868 0.70594 4.7168 1.9629 1.2299 1.257 1.8642 2.8112 1.9062 4.6621v9.791c-0.042 1.851-0.67632 3.4051-1.9062 4.6621-1.23 1.257-2.8029 1.9119-4.7168 1.9629h-9.791z"
      />
    </g>
    <path
      fill="#000080"
      d="m-486.29 554.99v16.416h6.4805c0.95694-0.021 1.7424-0.33812 2.3574-0.95312 0.61495-0.61498 0.93403-1.4024 0.95508-2.3594v-9.791c-0.0211-0.95697-0.34013-1.7424-0.95508-2.3574-0.61504-0.61497-1.4005-0.93405-2.3574-0.95508z"
    />
  </g>
  <text
    id="text"
    x="50%"
    y="50%"
    text-anchor="middle"
    dominant-baseline="middle"
    fill="000"
    font-size="100"
  >
    Plate
  </text>
  <text
    id="electric-sign"
    x="95%"
    y="50%"
    text-anchor="end"
    dominant-baseline="middle"
    fill="lightgrey"
    font-size="100"
  >
    E
  </text>
</svg>
