<svg>
  <symbol xmlns="http://www.w3.org/2000/svg" x="0px" y="0px" viewBox="0 0 962 962" xml:space="preserve" id="city">
    <path d="M959.1,404.35l-37.6-35.8c-3.9-3.9-10.3-3.9-14.2,0l-37.6,35.8c-1.9,1.899-2.9,4.399-2.9,7.1v178.5c0,5.5-4.5,10-10,10
      h-55.2c-5.5,0-10,4.5-10,10v55.701c0,5.5-4.5,10-10,10h-5.1c-5.5,0-10-4.5-10-10v-432.4c0-5.5-4.5-10-10-10h-13.3
      c-5.5,0-10-4.5-10-10v-27c0-5.5-4.5-10-10-10H669c-5.5,0-10,4.5-10,10v27c0,5.5-4.5,10-10,10h-12.8c-5.5,0-10,4.5-10,10
      L626.1,579.949c0,9.5-16.899,13.602-22.8,6.201l-43.5-54.5c-4-5-11.7-5-15.7,0l-61.1,77c-1.4,1.799-2.2,4-2.2,6.199v59.1
      c0,8.9-10.8,13.4-17.1,7.102l-21.4-21.602c-3.899-3.898-10.3-3.898-14.2,0l-25.399,25.5c-6.3,6.301-17.101,1.9-17.101-7.1v-491.6
      c0-5.5-4.5-10-10-10H320.4c-5.5,0-10,4.5-10,10v479.301c0,5.5-4.5,10-10,10H295.3c-5.5,0-10-4.5-10-10V484.449c0-5.5-4.5-10-10-10
      h-11.2c-5.5,0-10-4.5-10-10V376.55c0-5.5-4.5-10-10-10h-9.9c-5.5,0-10-4.5-10-10v-98.4c0-5.5-4.5-10-10-10h-5.7
      c-5.5,0-10,4.5-10,10v98.4c0,5.5-4.5,10-10,10h-9.9c-5.5,0-10,4.5-10,10v87.899c0,5.5-7.1,9.9-12.7,9.9h-7.6
      c-6.1,0-11,4.899-11,11V651.15c0,9.5-9.3,13.699-15.2,6.299L79.7,603.65c-4.7-5.9-12.5-5.9-17.2,0l-60.3,76
      c-1.4,1.799-2.2,4-2.2,6.199v89.9c0,5.5,4.5,10,10,10h471h471c5.5,0,10-4.5,10-10v-364.4C962,408.75,961,406.25,959.1,404.35z" />
  </symbol>
  <symbol xmlns="http://www.w3.org/2000/svg" x="0px" y="0px" viewBox="0 0 411.743 411.743" xml:space="preserve" id="state">
    <path d="M237.994,41.255c0-4.971,4.029-9,9-9h2.143c4.971,0,9,4.029,9,9s-4.029,9-9,9h-2.143
      C242.024,50.255,237.994,46.226,237.994,41.255z M250.413,250.471c0,4.971,4.029,9,9,9h2.143c4.971,0,9-4.029,9-9s-4.029-9-9-9
      h-2.143C254.443,241.471,250.413,245.5,250.413,250.471z M260.485,209.216c22.747,0,41.254,18.507,41.254,41.255
      c0,19.657-13.82,36.148-32.254,40.266v27.329c0,4.971-4.029,9-9,9c-4.971,0-9-4.029-9-9v-27.329
      c-18.435-4.117-32.256-20.608-32.256-40.266C219.229,227.723,237.736,209.216,260.485,209.216z M260.485,227.216
      c-12.823,0-23.256,10.433-23.256,23.255s10.433,23.255,23.256,23.255c12.822,0,23.254-10.433,23.254-23.255
      S273.307,227.216,260.485,227.216z M115.535,130.736c0-22.748,18.508-41.255,41.257-41.255s41.256,18.507,41.256,41.255
      c0,19.657-13.821,36.148-32.256,40.267v27.328c0,4.971-4.029,9-9,9s-9-4.029-9-9v-27.328
      C129.358,166.885,115.535,150.394,115.535,130.736z M133.535,130.736c0,12.823,10.433,23.255,23.257,23.255
      c12.823,0,23.256-10.432,23.256-23.255s-10.433-23.255-23.256-23.255C143.968,107.481,133.535,117.913,133.535,130.736z
        M206.81,41.255C206.81,18.507,225.317,0,248.065,0c22.749,0,41.256,18.507,41.256,41.255c0,19.657-13.821,36.148-32.256,40.267
      v27.328c0,4.971-4.029,9-9,9s-9-4.029-9-9V81.521C220.631,77.403,206.81,60.912,206.81,41.255z M224.81,41.255
      c0,12.823,10.432,23.255,23.255,23.255c12.823,0,23.256-10.432,23.256-23.255S260.888,18,248.065,18
      C235.242,18,224.81,28.432,224.81,41.255z M359.02,155.57l-15.068-5.454l-12.414-85.005c-1.477-10.122-7.084-18.506-15.79-23.607
      c-4.29-2.515-9.803-1.071-12.314,3.216c-2.514,4.288-1.074,9.802,3.215,12.314c4.062,2.381,6.377,5.872,7.078,10.677l13.193,90.336
      c0.479,3.281,2.724,6.033,5.842,7.162l20.132,7.287c13.8,4.995,15.159,8.439,14.803,10.882l-21.658,148.296
      c-1.018,6.972-5.612,11.396-13.657,13.151l-136.509,29.779c-1.214,0.264-2.158,0.064-3.27-0.689
      c-2.966-2.008-5.67-7.208-6.577-12.642l-0.727-4.359c-0.439-2.636-2.027-4.94-4.334-6.289c-2.309-1.352-5.094-1.603-7.607-0.694
      L52.745,393.585c-1.717,0.624-3.88-1.021-4.503-1.539c-2.866-2.388-4.672-6.325-4.199-9.159l41.819-250.464
      c1.018-6.102,4.345-11.891,7.574-13.18c4.617-1.842,6.865-7.078,5.022-11.694c-1.843-4.617-7.08-6.87-11.694-5.022
      c-11.188,4.465-16.974,16.842-18.656,26.934L26.289,379.923c-1.537,9.209,2.56,19.396,10.436,25.955
      c4.639,3.863,9.915,5.865,15.153,5.865c2.359,0,4.712-0.406,6.994-1.232l110.869-40.129c2.493,7.906,7.044,14.562,12.767,18.438
      c5.206,3.525,11.154,4.689,17.199,3.371l136.509-29.779c15.442-3.368,25.515-13.624,27.632-28.137l21.658-148.295
      C388.396,166.204,367.054,158.479,359.02,155.57z M155.724,139.736h2.141c4.971,0,9-4.029,9-9s-4.029-9-9-9h-2.141
      c-4.971,0-9,4.029-9,9S150.753,139.736,155.724,139.736z M138.785,72.874c0.502,0.084,1.001,0.124,1.493,0.124
      c4.319,0,8.132-3.118,8.866-7.519l4.569-27.365c0.908-5.437,3.612-10.636,6.578-12.645c1.113-0.752,2.061-0.952,3.271-0.688
      l22.293,4.863c4.858,1.063,9.652-2.019,10.711-6.875c1.06-4.856-2.019-9.651-6.875-10.711l-22.292-4.863
      c-6.046-1.318-11.995-0.154-17.2,3.371c-7.155,4.845-12.479,14.035-14.239,24.583l-4.569,27.365
      C130.572,67.417,133.882,72.056,138.785,72.874z"/>
  </symbol>
</svg>